<?xml version="1.0" encoding="UTF-8"?>
<svg width="200px" height="100px" viewBox="0 0 200 100" version="1.1" xmlns="http://www.w3.org/2000/svg">
    <g stroke="none" stroke-width="1" fill="none" fill-rule="evenodd">
        <path d="M100,90 C44.7715,90 0,45.2285 0,-10 L10,-10 C10,39.7056 50.2944,80 100,80 C149.7056,80 190,39.7056 190,-10 L200,-10 C200,45.2285 155.2285,90 100,90 Z" fill="#FF0000"></path>
        <path d="M100,75 C53.0558,75 15,36.9442 15,-10 L25,-10 C25,31.2812 58.7188,65 100,65 C141.2812,65 175,31.2812 175,-10 L185,-10 C185,36.9442 146.9442,75 100,75 Z" fill="#FF9900"></path>
        <path d="M100,60 C61.3401,60 30,28.6599 30,-10 L40,-10 C40,22.8427 67.1573,50 100,50 C132.8427,50 160,22.8427 160,-10 L170,-10 C170,28.6599 138.6599,60 100,60 Z" fill="#FFFF00"></path>
        <path d="M100,45 C69.6243,45 45,20.3757 45,-10 L55,-10 C55,14.3594 77.6406,37 100,37 C122.3594,37 145,14.3594 145,-10 L155,-10 C155,20.3757 130.3757,45 100,45 Z" fill="#33CC00"></path>
        <path d="M100,30 C77.9086,30 60,12.0914 60,-10 L70,-10 C70,5.799 83.201,19 100,19 C116.799,19 130,5.799 130,-10 L140,-10 C140,12.0914 122.0914,30 100,30 Z" fill="#0066FF"></path>
        <path d="M100,15 C86.1929,15 75,3.8071 75,-10 L85,-10 C85,-2.268 91.732,4 100,4 C108.268,4 115,-2.268 115,-10 L125,-10 C125,3.8071 113.8071,15 100,15 Z" fill="#9933FF"></path>
    </g>
</svg>
